<svg id="Layer_1" data-name="Layer 1" xmlns="http://www.w3.org/2000/svg" viewBox="0 0 100 100"><defs><style>.cls-1{fill:#fff;}</style></defs><path class="cls-1" d="M97.14,37.52a1.15,1.15,0,0,1,1.86.9V77.56a9.2,9.2,0,0,1-9.19,9.19H10.19A9.2,9.2,0,0,1,1,77.56V38.44a1.15,1.15,0,0,1,1.86-.9c4.28,3.33,10,7.56,29.49,21.74,4,2.95,10.86,9.15,17.65,9.11s13.78-6.27,17.67-9.11C87.19,45.1,92.86,40.85,97.14,37.52ZM50,62.25c4.44.08,10.83-5.59,14-7.92,25.4-18.44,27.33-20,33.19-24.64A4.58,4.58,0,0,0,99,26.07V22.44a9.2,9.2,0,0,0-9.19-9.19H10.19A9.2,9.2,0,0,0,1,22.44v3.63a4.61,4.61,0,0,0,1.76,3.62c5.86,4.58,7.79,6.2,33.19,24.64,3.22,2.33,9.61,8,14,7.92Z"/></svg>