<?xml version="1.0" encoding="utf-8"?>
<!-- Generator: Adobe Illustrator 23.0.3, SVG Export Plug-In . SVG Version: 6.00 Build 0)  -->
<svg version="1.1" id="Layer_1" xmlns="http://www.w3.org/2000/svg" xmlns:xlink="http://www.w3.org/1999/xlink" x="0px" y="0px"
	 viewBox="0 0 400 400" style="enable-background:new 0 0 400 400;" xml:space="preserve">
<style type="text/css">
	.st0{fill:#999999;}
</style>
<g>
	<g>
		<ellipse class="st0" cx="200" cy="179.7" rx="45.2" ry="45.1"/>
		<path class="st0" d="M324.5,80.4H318c-5.6,0-10.8-2.7-14-7.2l-16.2-22.8c-3.3-4.7-8.7-7.4-14.4-7.4h-78c-5.7,0-11.1,2.8-14.4,7.4
			l-16.2,22.8c-3.2,4.5-8.4,7.2-14,7.2H75.5c-9.3,0-16.9,7.6-16.9,16.9v155.2c0,9.3,7.6,16.9,16.9,16.9h248.9
			c9.3,0,16.9-7.6,16.9-16.9V97.3C341.4,88,333.8,80.4,324.5,80.4z M206.4,64.5c0-8.8,7.1-15.9,15.9-15.9h23.1
			c8.8,0,15.9,7.1,15.9,15.9v0c0,8.8-7.1,15.9-15.9,15.9h-23.1C213.6,80.4,206.4,73.3,206.4,64.5L206.4,64.5z M200,250.5
			c-39.1,0-70.9-31.7-70.9-70.8c0-39.1,31.7-70.8,70.9-70.8s70.9,31.7,70.9,70.8C270.9,218.8,239.1,250.5,200,250.5z"/>
	</g>
	<g>
		<path class="st0" d="M136.8,308c1.5,0.9,3.6,1.6,5.8,1.6c3.3,0,5.3-1.7,5.3-4.3c0-2.3-1.3-3.7-4.7-5c-4.1-1.4-6.6-3.6-6.6-7.1
			c0-3.9,3.2-6.8,8.1-6.8c2.6,0,4.4,0.6,5.6,1.2l-0.9,2.6c-0.8-0.4-2.5-1.2-4.8-1.2c-3.4,0-4.7,2-4.7,3.8c0,2.3,1.5,3.5,5,4.8
			c4.2,1.6,6.4,3.7,6.4,7.4c0,3.9-2.9,7.2-8.8,7.2c-2.4,0-5.1-0.7-6.4-1.6L136.8,308z"/>
		<path class="st0" d="M175.7,302.8c0,6.7-4.6,9.6-9,9.6c-4.9,0-8.6-3.6-8.6-9.3c0-6,3.9-9.6,8.9-9.6
			C172.2,293.5,175.7,297.3,175.7,302.8z M161.4,303c0,3.9,2.3,6.9,5.5,6.9c3.1,0,5.5-2.9,5.5-7c0-3-1.5-6.9-5.4-6.9
			C163.1,296,161.4,299.6,161.4,303z"/>
		<path class="st0" d="M183.6,299.6c0-2.1,0-3.9-0.1-5.6h2.9l0.1,3.5h0.1c0.8-2.4,2.8-3.9,5-3.9c0.4,0,0.6,0,0.9,0.1v3.1
			c-0.3-0.1-0.7-0.1-1.1-0.1c-2.3,0-3.9,1.7-4.4,4.2c-0.1,0.4-0.1,1-0.1,1.5v9.6h-3.2V299.6z"/>
		<path class="st0" d="M199.6,299.6c0-2.1,0-3.9-0.1-5.6h2.9l0.1,3.5h0.1c0.8-2.4,2.8-3.9,5-3.9c0.4,0,0.6,0,0.9,0.1v3.1
			c-0.3-0.1-0.7-0.1-1.1-0.1c-2.3,0-3.9,1.7-4.4,4.2c-0.1,0.4-0.1,1-0.1,1.5v9.6h-3.2V299.6z"/>
		<path class="st0" d="M217.7,293.9l3.9,10.6c0.4,1.2,0.9,2.6,1.2,3.7h0.1c0.3-1.1,0.7-2.5,1.2-3.8l3.6-10.6h3.5l-4.9,12.8
			c-2.3,6.2-3.9,9.3-6.2,11.3c-1.6,1.4-3.2,2-4,2.1l-0.8-2.8c0.8-0.3,1.9-0.8,2.9-1.6c0.9-0.7,2-2,2.8-3.6c0.1-0.3,0.3-0.6,0.3-0.8
			c0-0.2-0.1-0.4-0.2-0.9l-6.7-16.6H217.7z"/>
		<path class="st0" d="M235.5,310c0-1.4,0.9-2.3,2.2-2.3c1.3,0,2.2,1,2.2,2.3c0,1.3-0.9,2.3-2.2,2.3
			C236.4,312.4,235.5,311.4,235.5,310z"/>
		<path class="st0" d="M246.9,310c0-1.4,0.9-2.3,2.2-2.3c1.3,0,2.2,1,2.2,2.3c0,1.3-0.9,2.3-2.2,2.3
			C247.8,312.4,246.9,311.4,246.9,310z"/>
		<path class="st0" d="M258.4,310c0-1.4,0.9-2.3,2.2-2.3c1.3,0,2.2,1,2.2,2.3c0,1.3-0.9,2.3-2.2,2.3
			C259.3,312.4,258.4,311.4,258.4,310z"/>
		<path class="st0" d="M2.1,356.6v-25.1h3.5l8,12.7c1.9,2.9,3.3,5.6,4.5,8.1l0.1,0c-0.3-3.3-0.4-6.4-0.4-10.3v-10.5h3.1v25.1h-3.3
			l-8-12.7c-1.8-2.8-3.4-5.7-4.7-8.4l-0.1,0c0.2,3.2,0.3,6.2,0.3,10.3v10.7H2.1z"/>
		<path class="st0" d="M51.8,343.8c0,8.6-5.3,13.2-11.7,13.2c-6.6,0-11.3-5.1-11.3-12.7c0-8,5-13.2,11.7-13.2
			C47.3,331.1,51.8,336.3,51.8,343.8z M32.3,344.2c0,5.4,2.9,10.2,8,10.2c5.1,0,8-4.7,8-10.4c0-5-2.6-10.2-8-10.2
			C35,333.7,32.3,338.7,32.3,344.2z"/>
		<path class="st0" d="M74.6,331.5v25.1h-3.2v-25.1H74.6z"/>
		<path class="st0" d="M105.1,345.6c-0.2-3.5-0.4-7.7-0.4-10.8h-0.1c-0.9,2.9-1.9,6.1-3.2,9.5L97,356.4h-2.5l-4.1-11.9
			c-1.2-3.5-2.2-6.8-2.9-9.7h-0.1c-0.1,3.1-0.3,7.3-0.5,11.1l-0.7,10.7h-3.1l1.8-25.1h4.1l4.3,12.1c1,3.1,1.9,5.8,2.5,8.4h0.1
			c0.6-2.5,1.5-5.3,2.6-8.4l4.5-12.1h4.1l1.6,25.1h-3.2L105.1,345.6z"/>
		<path class="st0" d="M121.3,348.7l-2.6,7.9h-3.4l8.5-25.1h3.9l8.6,25.1h-3.5l-2.7-7.9H121.3z M129.5,346.2l-2.5-7.2
			c-0.6-1.6-0.9-3.1-1.3-4.6h-0.1c-0.4,1.5-0.8,3-1.3,4.5l-2.5,7.3H129.5z"/>
		<path class="st0" d="M162.3,355.5c-1.5,0.5-4.3,1.4-7.7,1.4c-3.8,0-6.9-1-9.4-3.3c-2.2-2.1-3.5-5.4-3.5-9.3
			c0-7.5,5.2-12.9,13.6-12.9c2.9,0,5.2,0.6,6.3,1.2l-0.8,2.6c-1.3-0.6-3-1.1-5.6-1.1c-6.1,0-10.1,3.8-10.1,10.1
			c0,6.4,3.8,10.1,9.7,10.1c2.1,0,3.6-0.3,4.3-0.7V346h-5.1v-2.6h8.3V355.5z"/>
		<path class="st0" d="M184,344.8h-9.8v9h10.9v2.7H171v-25.1h13.6v2.7h-10.3v7.9h9.8V344.8z"/>
		<path class="st0" d="M208.7,348.7l-2.6,7.9h-3.4l8.5-25.1h3.9l8.6,25.1h-3.5l-2.7-7.9H208.7z M217,346.2l-2.5-7.2
			c-0.6-1.6-0.9-3.1-1.3-4.6h-0.1c-0.4,1.5-0.8,3-1.3,4.5l-2.5,7.3H217z"/>
		<path class="st0" d="M234.7,356.6l-8.2-25.1h3.5l3.9,12.3c1.1,3.4,2,6.4,2.7,9.4h0.1c0.7-2.9,1.8-6.1,2.9-9.3l4.2-12.4h3.5
			l-9,25.1H234.7z"/>
		<path class="st0" d="M255.7,348.7l-2.6,7.9h-3.4l8.5-25.1h3.9l8.6,25.1h-3.5l-2.7-7.9H255.7z M263.9,346.2l-2.5-7.2
			c-0.6-1.6-0.9-3.1-1.3-4.6h-0.1c-0.4,1.5-0.8,3-1.3,4.5l-2.5,7.3H263.9z"/>
		<path class="st0" d="M281.4,331.5v25.1h-3.2v-25.1H281.4z"/>
		<path class="st0" d="M290.8,331.5h3.2v22.4h10.7v2.7h-14V331.5z"/>
		<path class="st0" d="M316.1,348.7l-2.6,7.9h-3.4l8.5-25.1h3.9l8.6,25.1h-3.5l-2.7-7.9H316.1z M324.3,346.2l-2.5-7.2
			c-0.6-1.6-0.9-3.1-1.3-4.6h-0.1c-0.4,1.5-0.8,3-1.3,4.5l-2.5,7.3H324.3z"/>
		<path class="st0" d="M338.6,331.8c1.4-0.3,3.6-0.5,5.9-0.5c3.2,0,5.3,0.6,6.9,1.8c1.3,1,2.1,2.5,2.1,4.4c0,2.4-1.6,4.5-4.2,5.5
			v0.1c2.4,0.6,5.2,2.6,5.2,6.3c0,2.2-0.9,3.8-2.1,5c-1.8,1.6-4.6,2.3-8.7,2.3c-2.2,0-3.9-0.1-5-0.3V331.8z M341.8,342.1h2.9
			c3.4,0,5.4-1.8,5.4-4.2c0-2.9-2.2-4.1-5.5-4.1c-1.5,0-2.3,0.1-2.9,0.2V342.1z M341.8,354.1c0.6,0.1,1.6,0.1,2.7,0.1
			c3.4,0,6.4-1.2,6.4-4.9c0-3.4-2.9-4.8-6.5-4.8h-2.7V354.1z"/>
		<path class="st0" d="M362.5,331.5h3.2v22.4h10.7v2.7h-14V331.5z"/>
		<path class="st0" d="M396.8,344.8H387v9h10.9v2.7h-14.1v-25.1h13.6v2.7H387v7.9h9.8V344.8z"/>
	</g>
</g>
</svg>
