<svg id="Layer_1" data-name="Layer 1" xmlns="http://www.w3.org/2000/svg" viewBox="0 0 100 100"><defs><style>.cls-1{fill:#fff;}</style></defs><path class="cls-1" d="M52.36,1C32.21,1,12.3,14.43,12.3,36.17c0,13.82,7.78,21.67,12.49,21.67,1.94,0,3.06-5.42,3.06-7,0-1.82-4.65-5.71-4.65-13.31,0-15.79,12-27,27.57-27C64.14,10.6,74,18.2,74,32.16c0,10.43-4.18,30-17.73,30-4.89,0-9.07-3.53-9.07-8.6,0-7.42,5.19-14.61,5.19-22.26,0-13-18.44-10.64-18.44,5.06a23.14,23.14,0,0,0,1.88,10c-2.71,11.66-8.24,29-8.24,41.05,0,3.72.53,7.37.88,11.08.67.75.33.67,1.35.29,9.9-13.54,9.55-16.2,14-33.93,2.42,4.6,8.66,7.07,13.61,7.07,20.85,0,30.22-20.32,30.22-38.64C87.7,13.72,70.85,1,52.36,1Z"/></svg>