<svg id="Layer_1" data-name="Layer 1" xmlns="http://www.w3.org/2000/svg" viewBox="0 0 100 100"><defs><style>.cls-1{fill:#fff;}</style></defs><path class="cls-1" d="M89.81,37.75H86.75V16.68a4.56,4.56,0,0,0-1.35-3.24L74.31,2.35A4.56,4.56,0,0,0,71.07,1H17.84a4.6,4.6,0,0,0-4.59,4.59V37.75H10.19A9.18,9.18,0,0,0,1,46.94V72.2a2.3,2.3,0,0,0,2.3,2.3h10V94.41A4.6,4.6,0,0,0,17.84,99H82.16a4.6,4.6,0,0,0,4.59-4.59V74.5h10A2.3,2.3,0,0,0,99,72.2V46.94A9.18,9.18,0,0,0,89.81,37.75Zm-15.31,49h-49V68.38h49Zm-49-42.87V13.25H62.25v7.66a4.61,4.61,0,0,0,4.59,4.59H74.5V43.88ZM83.69,57.66a4.6,4.6,0,1,1,4.59-4.6A4.6,4.6,0,0,1,83.69,57.66Z"/></svg>