<svg id="Layer_1" data-name="Layer 1" xmlns="http://www.w3.org/2000/svg" viewBox="0 0 100 100"><defs><style>.cls-1{fill:#fff;}</style></defs><path class="cls-1" d="M88.93,30c.06.87.06,1.74.06,2.61C89,59.2,68.78,89.8,31.84,89.8A56.75,56.75,0,0,1,1,80.78,40.8,40.8,0,0,0,5.85,81a40.25,40.25,0,0,0,24.94-8.58A20.13,20.13,0,0,1,12,58.52a24.74,24.74,0,0,0,3.79.31,21.54,21.54,0,0,0,5.29-.68A20.09,20.09,0,0,1,5,38.43v-.24a20.17,20.17,0,0,0,9.08,2.54A20.1,20.1,0,0,1,7.84,13.87a57.09,57.09,0,0,0,41.41,21,22.73,22.73,0,0,1-.49-4.6A20.1,20.1,0,0,1,83.52,16.55,39.45,39.45,0,0,0,96.26,11.7a20,20,0,0,1-8.83,11.06A39.91,39.91,0,0,0,99,19.65,43.39,43.39,0,0,1,88.93,30Z"/></svg>