<svg id="Layer_1" data-name="Layer 1" xmlns="http://www.w3.org/2000/svg" viewBox="0 0 100 100"><defs><style>.cls-1{fill:#fff;}</style></defs><path class="cls-1" d="M84.32,15.24A48.58,48.58,0,0,0,7.89,73.84L1,99l25.75-6.76A48.41,48.41,0,0,0,50,98.15h0c26.75,0,49-21.79,49-48.57A48.74,48.74,0,0,0,84.32,15.24ZM50,90a40.25,40.25,0,0,1-20.56-5.63L28,83.47l-15.27,4,4.07-14.89-1-1.54A40.36,40.36,0,0,1,78.52,21,40.49,40.49,0,0,1,90.8,49.58C90.8,71.85,72.23,90,50,90ZM72.12,59.73c-1.21-.61-7.18-3.54-8.3-3.93s-1.92-.62-2.73.61S58,60.35,57.24,61.18s-1.42.92-2.62.3C47.48,57.92,42.8,55.12,38.1,47.05c-1.25-2.15,1.25-2,3.57-6.63a2.27,2.27,0,0,0-.11-2.12c-.31-.62-2.74-6.59-3.74-9s-2-2-2.74-2.07-1.51-.05-2.32-.05a4.52,4.52,0,0,0-3.24,1.51A13.68,13.68,0,0,0,25.28,38.8c0,6,4.35,11.75,4.94,12.56S38.78,64.42,51,69.69c7.7,3.32,10.72,3.61,14.57,3,2.34-.35,7.18-2.93,8.18-5.78s1-5.27.7-5.77S73.32,60.33,72.12,59.73Z"/></svg>