<?xml version="1.0" encoding="utf-8"?>
<!-- Generator: Adobe Illustrator 25.2.0, SVG Export Plug-In . SVG Version: 6.00 Build 0)  -->
<svg version="1.1" id="Layer_1" xmlns="http://www.w3.org/2000/svg" xmlns:xlink="http://www.w3.org/1999/xlink" x="0px" y="0px"
	 viewBox="0 0 594 200" style="enable-background:new 0 0 594 200;" xml:space="preserve">
<style type="text/css">
	.st0{fill:#FFFFFF;}
</style>
<g>
	<path class="st0" d="M71.112,116.28c0.668-0.366,0.914-1.203,0.549-1.872c-0.365-0.668-1.202-0.915-1.872-0.55
		c-0.047,0.026-4.777,2.586-12.004,4.737c-0.092,0.027-0.191,0.055-0.285,0.082c1.465-16.946,2.947-31.95,4.025-37.913
		c2.935-16.225,3.855-21.066,3.863-21.113c0.142-0.749-0.349-1.471-1.097-1.613c-0.749-0.142-1.471,0.349-1.613,1.097
		c-0.009,0.047-0.93,4.894-3.868,21.137c-1.109,6.129-2.638,21.711-4.14,39.156c-3.38,0.834-7.693,1.729-12.193,2.662
		c-8.543,1.772-18.226,3.781-25.253,6.103c-0.339,0.112-0.683,0.23-1.029,0.35c1.967-24.813,5.375-40.822,5.412-40.994
		c0.16-0.745-0.313-1.479-1.058-1.64c-0.745-0.162-1.479,0.313-1.64,1.057c-0.038,0.177-3.6,16.885-5.566,42.625
		c-5.727,2.211-11.295,4.912-11.581,5.05c-0.685,0.333-0.971,1.159-0.637,1.844c0.272,0.558,0.87,0.851,1.453,0.76
		c0.132-0.021,0.264-0.061,0.391-0.123c0.064-0.031,4.921-2.387,10.152-4.478c-0.05,0.719-0.099,1.439-0.146,2.17
		c-0.527,8.185-3.049,49.238-0.938,53.648c0.55,1.149,1.232,1.354,1.78,1.268c0.094-0.015,0.183-0.037,0.267-0.066
		c1.41-0.472,1.152-1.998,0.587-5.34c-0.279-1.649-0.598-3.256-0.676-3.643c-0.139-8.337,0.342-24.09,1.733-45.69
		c0.075-1.165,0.155-2.307,0.237-3.439c0.719-0.263,1.431-0.513,2.123-0.742c6.877-2.272,16.478-4.264,24.948-6.021
		c4.132-0.857,8.107-1.682,11.384-2.465c-2.495,29.371-4.844,62.764-4.976,65.11c-0.249,4.425-1.377,9.387-1.388,9.438
		c-0.17,0.743,0.294,1.483,1.036,1.653c0.176,0.041,0.353,0.045,0.521,0.019c0.541-0.084,1.002-0.489,1.132-1.054
		c0.048-0.212,1.192-5.236,1.454-9.9c0.133-2.369,2.53-36.45,5.047-65.979c0.465-0.126,0.91-0.251,1.324-0.374
		C66.099,119,70.911,116.39,71.112,116.28z"/>
	<path class="st0" d="M213.789,108.972c-0.095,0.075-9.722,7.52-22.586,10.348c-0.471,0.104-0.855,0.447-1.01,0.904
		c-0.156,0.457-0.06,0.963,0.251,1.332c2.582,3.067,3.391,8.206,1.966,12.498c-0.611,1.841-2.183,5.057-5.842,5.914
		c-1.737,0.402-3.118-0.01-4.229-1.272c-2.726-3.098-3.239-10.85-1.097-16.59c2.88-7.718,7.959-10.993,8.033-11.04
		c0.645-0.402,0.843-1.251,0.442-1.897c-0.401-0.648-1.252-0.847-1.899-0.446c-0.225,0.139-5.191,3.288-8.483,10.757
		c-0.002,0.005-0.006,0.01-0.008,0.015c-0.008,0.018-0.018,0.039-0.026,0.058c-0.005,0.012-0.01,0.023-0.016,0.035
		c-2.368,5.406-7.635,15.969-12.8,25.035c-9.114,15.998-12.131,17.22-12.54,17.313c-0.328-0.253-2.492-2.611-2.69-20.72
		c-0.086-7.902,0.242-17.204,0.869-25.464c1.092-2.624,2.208-5.343,3.349-8.156c5.325-13.13,9.839-25.847,12.709-35.807
		c4.488-15.574,2.872-16.753,2.004-17.386c-0.381-0.279-1.421-0.798-2.837,0.384c-5.355,4.468-15.169,34.431-17.216,52.557
		c-0.236,2.089-0.477,4.714-0.699,7.685c-19.358,46.433-26.288,51.537-28.008,51.961c-0.278,0.069-0.382,0.003-0.491-0.088
		c-4.95-4.186-4.075-23.82-2.256-46.279c2.457-4.784,4.809-9.947,6.963-15.457c4.565-11.677,8.408-22.992,10.822-31.86
		c3.738-13.733,2.276-14.654,1.403-15.204c-0.504-0.318-1.548-0.639-2.872,0.777c-4.485,4.797-16.214,27.792-18.627,56.239
		c-0.138,1.625-0.27,3.215-0.395,4.764c-10.455,20.257-22.623,33.3-28.9,36.32c-4.275,2.057-7.146,2.574-9.036,1.627
		c-1.919-0.961-3.288-3.657-4.185-8.24c-1.959-10.002,4.653-24.557,11.017-28.122c2.013-1.129,3.602-1.366,4.358-0.653
		c1.053,0.993,1.156,4.186-1.108,8.849c-3.735,7.692-11.55,11.821-11.69,11.894c-0.678,0.348-0.945,1.18-0.596,1.858
		c0.348,0.678,1.181,0.944,1.858,0.596c0.355-0.183,8.749-4.572,12.911-13.143c2.618-5.39,2.812-9.899,0.519-12.061
		c-0.995-0.939-3.306-2.152-7.6,0.253c-7.263,4.068-14.57,19.861-12.376,31.06c1.088,5.554,2.886,8.788,5.657,10.177
		c2.754,1.379,6.291,0.884,11.469-1.608c6.016-2.895,17.102-14.349,27.19-32.105c-1.776,24.581-1.369,38.144,3.695,42.426
		c0.829,0.702,1.844,0.93,2.933,0.661c5.195-1.281,14.205-16.846,26.833-46.325c-0.804,16.119-0.711,36.233,2.856,40.315
		c0.735,0.841,1.526,1.032,2.061,1.044c0.17,0.004,0.371,0.008,0.616-0.03c1.606-0.251,5.101-2.339,14.329-18.506
		c2.936-5.144,5.909-10.778,8.384-15.713c0.071,3.909,1.011,7.691,3.101,10.066c1.649,1.874,3.807,2.649,6.274,2.264
		c0.216-0.034,0.435-0.077,0.655-0.128c3.628-0.849,6.484-3.667,7.833-7.731c1.491-4.492,0.971-9.609-1.239-13.386
		c12.435-3.225,21.308-10.086,21.699-10.392c0.6-0.469,0.706-1.336,0.237-1.937C215.257,108.609,214.391,108.502,213.789,108.972z
		 M168.478,57.579c-0.127,5.069-5.101,23.136-15.43,48.654C155.412,87.968,164.224,62.881,168.478,57.579z M136.108,61.866
		c-0.519,5.215-4.484,20.42-13.035,42.295c-1.189,3.041-2.437,5.974-3.727,8.791C121.92,88.416,131.552,68.002,136.108,61.866z"/>
	<path class="st0" d="M592.307,50.231c-0.664-0.372-1.506-0.135-1.878,0.53c-10.006,17.886-20.71,28.99-26.42,31.739
		c-4.273,2.055-7.146,2.573-9.036,1.626c-1.919-0.961-3.288-3.657-4.186-8.239c-1.364-6.967,1.431-16.14,5.403-22.272
		c0.045-0.065,0.092-0.137,0.137-0.201c0.011-0.016,0.018-0.034,0.028-0.05c1.689-2.55,3.578-4.551,5.448-5.598
		c2.015-1.128,3.602-1.366,4.358-0.653c1.054,0.993,1.156,4.186-1.108,8.849c-3.75,7.723-11.613,11.854-11.692,11.894
		c-0.676,0.349-0.943,1.18-0.595,1.857c0.349,0.678,1.178,0.946,1.858,0.596c0.355-0.183,8.749-4.572,12.911-13.143
		c2.618-5.391,2.812-9.899,0.519-12.061c-0.996-0.939-3.304-2.154-7.6,0.253c-2.144,1.201-4.289,3.427-6.195,6.251
		c-0.069,0.064-0.133,0.136-0.189,0.216c-4.269,6.057-9.047,16.25-13.668,26.108c-6.115,13.047-14.473,30.907-18.715,29.966
		c-6.945-1.559-3.704-25.139-0.844-45.943l0.5-3.648c1.338-9.802,3.667-20.533,5.985-29.9c1.772-0.451,3.62-0.902,5.552-1.35
		l38.311-8.891c0.742-0.172,1.204-0.914,1.032-1.656c-0.173-0.742-0.919-1.211-1.657-1.032l-38.311,8.891
		c-1.433,0.333-2.82,0.666-4.165,1c3.197-12.543,6.16-21.97,6.213-22.138c0.229-0.727-0.173-1.502-0.9-1.731
		c-0.728-0.23-1.502,0.173-1.731,0.899c-0.056,0.176-3.267,10.389-6.624,23.744c-17.488,4.552-26.585,8.82-27.01,9.022
		c-0.689,0.327-0.982,1.15-0.655,1.838c0.268,0.565,0.871,0.864,1.459,0.772c0.128-0.02,0.255-0.059,0.379-0.117
		c0.099-0.047,8.744-4.097,25.071-8.459c-2.218,9.096-4.401,19.333-5.684,28.735l-0.5,3.645c-0.131,0.951-0.26,1.895-0.389,2.835
		c-1.987,1.46-10.199,7.609-20.924,17.192c-2.526,2.257-5.119,4.922-7.6,7.776c-1.027-7.018-3.146-12.73-4.91-17.487
		c-0.476-1.283-0.926-2.501-1.331-3.67c0.258-0.629,0.017-1.345-0.56-1.695c-0.999-3.191-1.51-6.005-0.945-8.672
		c1.696-7.994,10.526-9.862,10.901-9.938c0.746-0.149,1.231-0.874,1.083-1.62c-0.147-0.747-0.842-1.238-1.621-1.086
		c-0.448,0.088-10.985,2.277-13.063,12.072c-0.731,3.446-0.008,6.954,1.235,10.76c-6.933,14.305-19.98,35.136-27.033,32.795
		c-8.021-2.668-3.945-23.569-1.697-31.398c0.002-0.005,0.001-0.011,0.003-0.016c0.014-0.052,0.021-0.105,0.029-0.158
		c0.006-0.038,0.015-0.075,0.018-0.113c0.003-0.04-0.002-0.08-0.003-0.121c-0.001-0.05,0.001-0.099-0.005-0.148
		c-0.004-0.03-0.014-0.059-0.02-0.089c-0.011-0.057-0.021-0.114-0.039-0.168c-0.011-0.033-0.028-0.064-0.042-0.096
		c-0.021-0.049-0.039-0.099-0.065-0.145c-0.016-0.029-0.039-0.056-0.057-0.084c-0.031-0.047-0.061-0.094-0.097-0.137
		c-0.017-0.02-0.038-0.037-0.057-0.056c-0.045-0.047-0.091-0.094-0.143-0.135c-0.003-0.003-0.006-0.006-0.009-0.008
		c-0.021-0.016-0.045-0.027-0.067-0.042c-0.05-0.034-0.099-0.068-0.154-0.096c-0.041-0.021-0.084-0.034-0.127-0.051
		c-0.037-0.014-0.072-0.033-0.111-0.044c-0.006-0.002-0.012-0.002-0.018-0.003c-0.044-0.012-0.089-0.017-0.133-0.024
		c-0.047-0.008-0.093-0.019-0.139-0.022c-0.024-0.002-0.047,0.002-0.071,0.001c-0.067-0.001-0.133-0.002-0.198,0.007
		c-0.002,0-0.004,0.001-0.007,0.001c-0.085,0.012-0.169,0.03-0.25,0.057c-0.011,0.004-0.021,0.01-0.032,0.014
		c-0.072,0.026-0.142,0.055-0.209,0.093c-0.022,0.012-0.041,0.029-0.062,0.043c-0.054,0.034-0.108,0.069-0.157,0.111
		c-0.021,0.018-0.039,0.041-0.06,0.061c-0.045,0.043-0.09,0.087-0.129,0.136c-0.003,0.004-0.007,0.007-0.011,0.011
		c-0.096,0.125-9.676,12.368-25.561,14.85c-0.172,0.027-0.348,0.053-0.522,0.077c-0.462,0.077-0.917,0.405-1.096,0.873
		c-0.179,0.469-0.09,0.998,0.234,1.381c2.583,3.067,3.391,8.207,1.966,12.498c-0.611,1.841-2.182,5.057-5.842,5.913
		c-1.739,0.403-3.118-0.01-4.229-1.272c-2.727-3.098-3.239-10.85-1.097-16.589c1.28-3.43,2.993-5.978,4.509-7.76
		c2.588-2.036,3.747-3.436,3.867-3.585c0.008-0.01,0.013-0.022,0.021-0.032c0.033-0.043,0.06-0.088,0.087-0.134
		c0.02-0.034,0.041-0.066,0.057-0.101c0.021-0.043,0.037-0.088,0.053-0.134c0.014-0.04,0.03-0.078,0.04-0.119
		c0.012-0.044,0.018-0.09,0.025-0.135c0.006-0.042,0.014-0.083,0.017-0.125c0.003-0.046,0-0.093-0.002-0.139
		c-0.002-0.042-0.002-0.083-0.007-0.124c-0.006-0.045-0.017-0.088-0.027-0.133c-0.01-0.044-0.02-0.088-0.034-0.13
		c-0.013-0.038-0.03-0.074-0.046-0.111c-0.021-0.048-0.043-0.096-0.069-0.142c-0.006-0.011-0.01-0.023-0.016-0.033
		c-0.014-0.023-0.033-0.041-0.048-0.063c-0.03-0.043-0.06-0.084-0.095-0.124c-0.031-0.035-0.064-0.066-0.098-0.097
		c-0.023-0.021-0.041-0.045-0.065-0.064c-0.011-0.009-0.024-0.014-0.036-0.023c-0.04-0.03-0.082-0.055-0.124-0.08
		c-0.036-0.022-0.071-0.044-0.109-0.062c-0.042-0.02-0.086-0.035-0.13-0.051c-0.04-0.015-0.08-0.03-0.121-0.041
		c-0.045-0.012-0.091-0.018-0.137-0.025c-0.041-0.006-0.081-0.014-0.123-0.017c-0.048-0.003-0.096,0-0.144,0.002
		c-0.04,0.002-0.08,0.002-0.119,0.007c-0.046,0.006-0.092,0.017-0.138,0.028c-0.042,0.01-0.084,0.019-0.125,0.032
		c-0.04,0.013-0.078,0.031-0.117,0.049c-0.046,0.02-0.092,0.041-0.136,0.066c-0.011,0.007-0.024,0.01-0.035,0.017
		c-0.131,0.081-1.888,1.201-3.98,3.602c-4.211,3.261-12.441,8.324-26.5,12.287c-0.451,0.127-0.807,0.475-0.944,0.923
		c-0.138,0.448-0.039,0.935,0.263,1.294c2.582,3.067,3.391,8.206,1.966,12.497c-0.611,1.841-2.183,5.057-5.842,5.914
		c-1.738,0.402-3.118-0.01-4.229-1.272c-2.706-3.075-3.228-10.734-1.139-16.461c0.305-0.72,0.562-1.348,0.767-1.866
		c2.938-6.484,7.262-9.272,7.309-9.302c0.645-0.402,0.843-1.251,0.442-1.897c-0.401-0.648-1.252-0.847-1.899-0.446
		c-0.201,0.124-4.195,2.668-7.392,8.547c-0.207,0.156-0.374,0.37-0.469,0.632c-0.012,0.033-0.206,0.562-0.557,1.439
		c-0.243,0.544-0.478,1.107-0.701,1.698c-2.545,6.001-8.659,18.705-15.559,20.782c-5.519,1.67-8.748-9.01-11.591-18.427
		c-2.971-9.846-5.538-18.349-11.154-17.472c-5.877,0.918-12.182,12.666-18.281,24.026c-3.232,6.022-8.107,15.104-9.934,15.39
		c-0.001,0-0.002,0-0.003,0c-3.67-1.374-1.027-17.837,0.907-29.871c2.861-17.817,5.564-34.646-1.783-36.832
		c-3.509-1.043-10.248,6.817-12.227,9.253c-6.069,7.465-11.697,17.435-15.847,28.073c-4.517,11.577-8.555,26.351-12.117,39.386
		c-3.376,12.352-6.58,24.077-8.961,27.958c-1.897-7.529,0.619-48.191,2.814-65.896c2.173-17.526,7.468-44.4,7.521-44.67
		c0.148-0.748-0.339-1.473-1.086-1.621c-0.748-0.147-1.473,0.339-1.621,1.086c-0.053,0.27-5.367,27.24-7.552,44.865
		c-0.988,7.969-2.408,24.623-3.093,39.789c-1.277,28.237,0.788,29.201,2.021,29.776c0.168,0.078,0.572,0.228,1.08,0.148
		c0.404-0.063,0.874-0.271,1.342-0.774c2.715-2.915,5.644-13.274,10.197-29.934c3.545-12.969,7.562-27.669,12.026-39.11
		c9.475-24.285,22.533-35.617,24.764-35.669c4.96,1.591,2.099,19.409-0.202,33.734c-3.08,19.176-4.68,31.026,0.978,32.938
		c3.429,1.159,6.709-4.606,13.209-16.715c4.961-9.242,11.754-21.899,16.275-22.605c3.242-0.506,5.816,8.02,8.086,15.543
		c3.216,10.653,6.873,22.738,15.028,20.272c5.269-1.586,9.904-7.944,13.234-13.933c0.082,3.88,1.023,7.628,3.099,9.986
		c1.65,1.874,3.807,2.649,6.274,2.264c0.216-0.034,0.435-0.077,0.655-0.128c3.628-0.849,6.484-3.667,7.833-7.731
		c1.502-4.525,0.964-9.685-1.288-13.47c8.83-2.641,15.311-5.686,19.924-8.405c-0.431,0.875-0.844,1.81-1.221,2.821
		c-2.212,5.926-2.225,15.019,1.61,19.377c1.649,1.874,3.807,2.649,6.274,2.264c0.216-0.034,0.435-0.077,0.655-0.128
		c3.628-0.849,6.483-3.667,7.832-7.731c1.474-4.441,0.982-9.494-1.164-13.259c10.308-2.038,17.827-7.699,21.988-11.618
		c-2.001,9.071-4.508,26.473,4.785,29.563c0.968,0.322,1.971,0.384,2.998,0.224c9.766-1.526,21.679-23.146,26.182-32.009
		c0.144,0.39,0.289,0.783,0.437,1.18c2.021,5.449,4.29,11.568,5.076,19.417c-6.989,8.653-12.504,18.306-12.033,23.473
		c0.187,2.051,1.228,3.092,2.068,3.604c1.321,0.805,2.709,1.104,4.054,0.893c0.733-0.114,1.453-0.38,2.143-0.796
		c4.854-2.933,7.48-12.858,6.69-25.286c-0.022-0.345-0.046-0.688-0.074-1.028c2.813-3.407,5.899-6.686,9.012-9.468
		c8.297-7.414,15.062-12.744,18.563-15.41c-2.985,22.229-4.692,40.412,3.884,42.336c0.505,0.113,1.011,0.128,1.523,0.049
		c5.519-0.863,11.508-12.789,20.295-31.536c1.659-3.539,3.338-7.119,5.002-10.528c-0.33,2.72-0.305,5.391,0.175,7.842
		c1.087,5.554,2.884,8.788,5.657,10.176c1.424,0.714,3.058,0.926,5.021,0.62c1.831-0.287,3.949-1.024,6.448-2.227
		c6.292-3.029,17.276-14.369,27.632-32.878C593.21,51.444,592.972,50.603,592.307,50.231z M481.583,117.084
		c-1.078,0.65-2.168,0.62-3.334-0.091c-0.281-0.172-0.666-0.514-0.756-1.499c-0.339-3.72,3.742-11.438,9.553-19.103
		C487.437,108.086,484.569,115.28,481.583,117.084z"/>
	<path class="st0" d="M451.822,57.437c0.858-0.134,1.445-0.938,1.311-1.796s-0.938-1.445-1.796-1.311s-1.445,0.938-1.311,1.796
		S450.964,57.571,451.822,57.437z"/>
</g>
</svg>
